<svg xmlns="http://www.w3.org/2000/svg" xmlns:svg="http://www.w3.org/2000/svg" id="svg8" width="32" height="32" version="1.1" viewBox="0 0 32 32"><metadata id="metadata5"/><path style="fill:currentColor" id="path1753" d="m 15.990234,8.009766 c -2.206395,0 -4.414027,0.00381 -6.0878902,0.00781 -0.8369314,0.002 -1.5419284,0.00286 -2.0449219,0.00586 -0.2514962,9.9e-4 -0.4522295,0.00191 -0.59375,0.00391 -0.070765,7.9e-4 -0.1261352,0.00291 -0.1640625,0.00391 -0.037927,7.9e-4 -0.093953,0.00405 -0.025391,-0.00195 -0.3936993,0.0383 -0.5590067,0.1332262 -0.7480469,0.3789062 -0.1916114,0.24902 -0.2933743,0.5303169 -0.3125,0.9667969 -0.015676,0.35777 0.00487,0.4587575 0.1933593,0.8359379 0.1381601,0.276479 0.5174323,0.796663 0.8769532,1.158203 0.2070493,0.20821 0.1957141,0.212942 0.5566406,0.476562 0.3609265,0.2636 1.0594395,0.749098 2.5273444,1.767578 2.029202,1.40791 2.779888,1.932478 3.689453,2.580078 1.095838,0.78024 1.563909,1.023065 1.939453,1.109375 -0.02264,-0.005 0.443266,-0.01075 0.513671,-0.03125 0.260858,-0.0763 0.875499,-0.403107 1.699219,-0.992187 0.421888,-0.3017 2.048958,-1.434824 5.826172,-4.058594 0.648364,-0.45037 0.799813,-0.572304 1.09375,-0.865234 0.369671,-0.36838 0.63361,-0.729159 0.802734,-1.074219 0.191736,-0.3911699 0.246269,-0.6255443 0.246094,-1.0214843 -1.22e-4,-0.30653 -0.0022,-0.3119381 -0.09961,-0.5175781 -0.08453,-0.17842 -0.102327,-0.20329 -0.244141,-0.34375 -0.276759,-0.27322 -0.406946,-0.3343606 -0.746094,-0.3691406 0.07784,0.008 0.01784,7.9e-4 -0.01953,0 -0.03736,-7.9e-4 -0.0918,-9.432e-4 -0.16211,-0.00195 -0.140619,-0.002 -0.343007,-0.00291 -0.593751,-0.00391 -0.50149,-0.003 -1.203127,-0.00386 -2.039061,-0.00586 -1.671871,-0.004 -3.877588,-0.00586 -6.083985,-0.00586 z m -9.9824215,6.736328 v 0.002 l 0.00391,3.470703 0.00391,4.798828 0.015625,0.05469 a 0.68971787,0.68971787 0 0 1 0.00195,0.002 c 0.079043,0.2545 0.1344032,0.348957 0.3066407,0.529297 0.2181208,0.22838 0.4586942,0.343717 0.7089843,0.373046 0.032495,4.81e-4 0.076412,9.44e-4 0.1367188,0.002 0.1277062,9.8e-4 0.3127936,9.33e-4 0.5488281,0.002 0.4720677,0.002 1.1466656,0.0049 1.9726562,0.0059 1.6519804,0.002 3.9119494,0.002 6.3789074,0.002 l 8.875,-0.0039 0.08984,-0.02344 c 0.270715,-0.0761 0.391567,-0.147422 0.576172,-0.332032 0.180506,-0.1805 0.266882,-0.329825 0.333985,-0.578125 l 0.02148,-0.08203 0.0059,-4.789062 0.0039,-3.423829 c -0.239187,0.18308 -0.294066,0.275006 -0.86914,0.666016 -2.055457,1.39752 -3.768548,2.586689 -4.837891,3.355469 -1.454021,1.04531 -1.607025,1.141232 -2.021484,1.351562 -0.560063,0.28423 -1.041707,0.476392 -1.513672,0.582032 -0.487253,0.109169 -1.013276,0.109379 -1.501954,0 C 14.777798,20.605998 14.316889,20.427096 13.74222,20.140906 13.359796,19.950185 12.968918,19.68722 12.279297,19.1875 12.014643,18.99573 11.66032,18.742664 11.492188,18.621094 10.771696,18.100154 8.9423479,16.831117 6.9863281,15.498047 6.3566807,15.068927 6.2975726,14.966964 6.0078125,14.746094 Z"/></svg>